<svg xmlns="http://www.w3.org/2000/svg" xmlns:xlink="http://www.w3.org/1999/xlink" aria-hidden="true" role="img" width="31.88" height="32" preserveAspectRatio="xMidYMid meet" viewBox="0 0 256 257"><defs><linearGradient id="logosReactjsIcon0" x1="-8.685%" x2="109.288%" y1="44.285%" y2="75.85%"><stop offset="0%" stop-color="#00D8FF"/><stop offset="100%" stop-color="#087EA4"/></defs><path fill="currentColor" d="M210.483 73.824a171.49 171.49 0 0 0-8.24-2.597c.465-1.9.893-3.777 1.273-5.621c6.238-30.281 2.16-54.676-11.769-62.708c-13.355-7.7-35.196.329-57.254 19.526a171.23 171.23 0 0 0-6.375 5.848a155.866 155.866 0 0 0-4.241-3.017C100.759 3.827 77.587-4.822 63.673 3.233C50.33 10.957 46.379 33.89 51.995 62.208a170.974 170.974 0 0 0 1.892 8.48c-3.28.932-6.445 1.924-9.474 2.98C17.309 83.498 0 98.307 0 113.668c0 15.865 18.582 31.778 46.812 41.427a145.52 145.52 0 0 0 6.921 2.165a167.467 167.467 0 0 0-2.01 9.138c-5.354 28.2-1.173 50.591 12.134 58.266c13.744 7.926 36.812-.22 59.273-19.855a145.267 145.267 0 0 0 5.342-4.923a168.001 168.001 0 0 0 6.92 6.314c21.758 18.722 43.246 26.282 56.54 18.586c13.731-7.949 18.194-32.003 12.4-61.268a145.016 145.016 0 0 0-1.535-6.843c1.92-.63 3.885-1.294 5.849-1.986c25.666-9.23 42.04-24.7 42.04-40.28c0-15.378-17.86-30.24-45.02-40.28Zm-11.122 86.9c-2.22 1.078-4.504 2.14-6.89 3.17c-2.21-7.86-5.27-16.16-9.12-24.45c3.75-7.86 6.93-15.55 9.53-22.88c3.44 1.53 6.78 3.12 9.98 4.75c20.16 9.86 32.15 22.18 32.15 32.64c0 11.15-13.64 24.17-35.64 34.99Zm-31.8-25.27c-5.14 8.9-10.55 17.32-16.12 25.04c-9.95 1.06-20.16 1.6-30.21 1.61c-10.12 0-20.25-.54-30.23-1.61c-5.58-7.72-11-16.16-16.12-25.04c-5.13-8.9-9.75-18.01-13.78-27.06c4.02-9.05 8.64-18.16 13.78-27.06c5.13-8.91 10.55-17.32 16.12-25.04c10-1.06 20.12-1.6 30.23-1.61c10.05 0 20.26.56 30.21 1.61c5.56 7.72 11 16.16 16.12 25.04c5.14 8.92 9.74 18.07 13.76 27.06c-4 9.04-8.62 18.16-13.76 27.06Zm-48.6-39.13a46.32 46.32 0 1 0 92.64 0a46.32 46.32 0 1 0-92.64 0Z"/><path fill="#087EA4" d="M128 90.28a37.72 37.72 0 1 1 0 75.44a37.72 37.72 0 1 1 0-75.44Z"/></svg>
